<?xml version="1.0" encoding="UTF-8"?>
<!DOCTYPE svg PUBLIC "-//W3C//DTD SVG 1.1//EN" "http://www.w3.org/Graphics/SVG/1.1/DTD/svg11.dtd">
<!-- Creator: CorelDRAW 2018 (64-Bit) -->
<svg xmlns="http://www.w3.org/2000/svg" xml:space="preserve" width="2041px" height="1087px" version="1.1" style="shape-rendering:geometricPrecision; text-rendering:geometricPrecision; image-rendering:optimizeQuality; fill-rule:evenodd; clip-rule:evenodd"
viewBox="0 0 1712.73 911.98"
 xmlns:xlink="http://www.w3.org/1999/xlink">
 <defs>
  <style type="text/css">
   <![CDATA[
    .fil2 {fill:#141414}
    .fil0 {fill:#D1312E}
    .fil1 {fill:#141414;fill-rule:nonzero}
   ]]>
  </style>
 </defs>
 <g id="Слой_x0020_1">
  <metadata id="CorelCorpID_0Corel-Layer"/>
  <path class="fil0" d="M604.16 0c246.55,0 446.42,204.16 446.42,455.99 0,251.84 -199.87,455.99 -446.42,455.99 -246.54,0 -446.41,-204.15 -446.41,-455.99 0,-251.83 199.87,-455.99 446.41,-455.99z"/>
  <g id="_2461303150928">
   <path class="fil1" d="M552.81 318.61l-49.49 15.33 -30.75 -99.35c-0.53,-1.05 -1.92,-1.63 -3.22,-1.22l-21.78 6.74c-1.29,0.4 -2.12,1.66 -1.96,2.83l-0.19 0.06 38.36 123.89c0.45,1.48 2.1,2.19 3.57,1.73l73.86 -22.86c1.47,-0.46 2.42,-1.97 1.97,-3.44l-6.8 -21.97c-0.4,-1.3 -2.1,-2.19 -3.57,-1.74zm124.15 -137.23l-22.59 4.3c-1.52,0.29 -2.44,1.64 -2.16,3.16l24.16 126.84c0.28,1.52 1.64,2.44 3.16,2.16l22.6 -4.31c1.51,-0.28 2.43,-1.64 2.15,-3.16l-24.15 -126.84c-0.29,-1.52 -1.65,-2.44 -3.17,-2.15zm213.2 -23.97l-77.18 4.73c-1.54,0.09 -2.81,1.53 -2.71,3.07l1.39 22.77c0.1,1.54 1.51,2.62 3.06,2.52l24.5 -1.5 6.37 103.8c0.27,1.33 1.49,2.23 2.84,2.15l22.76 -1.4c1.36,-0.08 2.46,-1.11 2.56,-2.48l-6.36 -103.79 24.51 -1.51c1.53,-0.09 2.82,-1.33 2.72,-2.88l-1.39 -22.76c-0.09,-1.54 -1.53,-2.82 -3.07,-2.72zm210.88 0.79l-77.27 -2.85c-1.54,-0.05 -2.95,1.25 -3,2.8l-0.84 22.8c-0.06,1.54 1.25,2.75 2.8,2.8l24.53 0.9 -3.82 103.92c0.15,1.36 1.27,2.37 2.62,2.42l22.79 0.84c1.36,0.05 2.55,-0.88 2.79,-2.22l3.82 -103.92 24.54 0.9c1.54,0.06 2.94,-1.05 2.99,-2.6l0.84 -22.79c0.06,-1.54 -1.25,-2.95 -2.79,-3zm197.47 131.96l-51.13 -8.35 16.77 -102.63c0,-1.18 -1,-2.32 -2.33,-2.54l-22.51 -3.67c-1.34,-0.22 -2.63,0.54 -3.02,1.66l-0.19 -0.04 -20.9 128.01c-0.25,1.53 0.9,2.89 2.42,3.14l76.31 12.46c1.52,0.25 3.05,-0.67 3.3,-2.2l3.71 -22.7c0.21,-1.34 -0.91,-2.89 -2.43,-3.14zm174.41 -35.78l42.24 14.5c1.28,0.44 2.94,-0.21 3.44,-1.68l7.47 -21.75c0.5,-1.47 -0.41,-3 -1.69,-3.44l-66.54 -22.85c-1.46,-0.5 -2.94,0.22 -3.44,1.67l-42.12 122.68c-0.5,1.46 0.22,2.94 1.68,3.44l66.55 22.85c1.28,0.43 2.93,-0.22 3.44,-1.69l7.47 -21.75c0.5,-1.46 -0.4,-3 -1.68,-3.44l-42.23 -14.5 8.09 -23.58 41.76 14.34c1.45,0.49 2.93,-0.22 3.43,-1.68l7.47 -21.76c0.51,-1.46 -0.22,-2.93 -1.68,-3.44l-41.75 -14.33 8.09 -23.59z"/>
   <path class="fil1" d="M579.9 584.04c0,0 1.39,-2.36 0.15,-5.39l-6 -14.23c-1.18,-3.21 -3.83,-3.89 -3.83,-3.89l-46.04 -19.19c0,0 -2.34,-1.39 -5.45,0.03l-14.16 5.83c-3.03,1.25 -3.9,3.82 -3.9,3.82l-38.14 91.54c0,0 -1.22,2.42 0.03,5.45l5.82 14.16c1.26,3.03 3.83,3.89 3.83,3.89l46.21 19.27c0,0 2.25,1.14 5.28,-0.11l14.34 -5.75c3.03,-1.25 3.71,-3.9 3.71,-3.9l38.15 -91.53zm-34.89 -3.23c0.19,0.07 0.72,0.3 1.03,1.06l1.67 4.04c0.41,1.02 -0.06,1.65 -0.06,1.65l-26.55 63.7c-0.15,0.36 -0.3,0.72 -1.06,1.03l-3.53 1.46 -20.7 -8.63 -1.46 -3.54c-0.14,-0.68 -0.16,-1.11 -0.01,-1.47l26.54 -63.7c0,0 0.3,-0.71 1.13,-1.21l4.23 -1.58c0.57,-0.39 1.11,-0.17 1.29,-0.09l17.48 7.28zm245.19 52.97c0,0 0.58,-2.66 -1.37,-5.29l-9.12 -12.29c-1.92,-2.83 -4.66,-2.84 -4.66,-2.84l-49.53 -7.34c0,0 -2.61,-0.78 -5.28,1.36l-12.29 9.12c-2.64,1.95 -2.65,4.69 -2.65,4.69l-0.19 -0.03 -6.72 45.32 0.19 0.03c0,0 -0.78,2.61 1.17,5.25l9.12 12.3c1.96,2.63 4.67,2.84 4.67,2.84l34.42 5.1c0.38,0.06 0.54,0.28 0.87,0.71l2.79 3.55c0.46,0.85 0.35,1.61 0.35,1.61l-2.13 14.34c0,0 -0.11,0.77 -0.8,1.45l-3.7 2.58c-0.44,0.32 -0.66,0.49 -1.04,0.43l-24.09 -3.57 1.27 -8.61c0.23,-1.53 -0.75,-2.85 -2.28,-3.07l-22.57 -3.35c-1.52,-0.23 -3.03,0.72 -3.26,2.25l-2.75 18.55c-0.03,0.2 0.14,0.41 0.14,0.41 0,0 -0.78,2.62 1.17,5.26l9.12 12.29c1.95,2.63 4.66,2.84 4.66,2.84l49.53 7.35c0,0 2.65,0.58 5.28,-1.37l12.29 -9.12c2.64,-1.96 2.85,-4.66 2.85,-4.66l6.72 -45.32c0,0 0.58,-2.65 -1.37,-5.28l-9.12 -12.3c-1.93,-2.82 -4.66,-2.84 -4.66,-2.84l-35.76 -5.3 -2.28 -3.07c-0.65,-0.88 -0.35,-1.62 -0.35,-1.62l-0.21 0.17 2.29 -15.49c0,0 0.12,-0.77 0.99,-1.42l3.52 -2.6c0.66,-0.49 1.03,-0.43 1.42,-0.38l23.7 3.51 -1.41 9.57c-0.23,1.53 0.76,2.85 2.28,3.07l22.57 3.34c1.53,0.23 3.03,-0.72 3.26,-2.25l2.92 -19.7 -0.16 -0.21 0.19 0.03zm206.36 -1.83l0 -0.19 0 0c-0.55,-1.75 -1.31,-2.73 -2.67,-2.75l-8.5 -0.11 -6 -0.08 -8.5 -0.11c-1.35,-0.02 -1.95,0.94 -2.74,2.67l0 0 0 0.19 -40 128.99c-0.41,1.36 1.31,2.73 2.86,2.75l22.04 0.29c1.54,0.03 2.91,-1.31 3.51,-2.66l4.84 -15.59 38.86 0.51 4.42 15.73c0.57,1.36 1.91,2.73 3.45,2.75l22.03 0.3c1.55,0.02 3.31,-1.31 2.94,-2.67 -12.18,-43.28 -24.36,-86.74 -36.54,-130.02zm-27.07 87.41l12.32 -39.47 11.07 39.78 -23.39 -0.31zm308.09 12.67l-48.68 -70.4 27.69 -56.02c0.35,-1.43 -2.53,-2.33 -3.87,-2.12l-28.81 4.7c-1.52,0.25 -2.26,1.74 -2.99,3.23l-21.44 46.38 -6.8 -41.78c-0.22,-1.33 -1.58,-2.49 -3.11,-2.24l-22.71 3.7c-1.52,0.25 -2.45,1.77 -2.23,3.11l20.85 128.02c0.25,1.52 1.58,2.48 3.11,2.23l22.7 -3.7c1.53,-0.24 2.49,-1.57 2.24,-3.1l-6.34 -38.92 7.68 -15.35 32.05 48.83c0.78,1.25 2.34,2.36 3.87,2.11l25.38 -4.13c1.51,-0.25 3.02,-1.86 2.42,-3.14l-1.01 -1.41zm153.84 -182.51l-0.08 -0.17 0 0c-1.21,-1.37 -2.3,-1.96 -3.55,-1.43l-7.82 3.34 -5.51 2.35 -7.82 3.34c-1.25,0.53 -1.4,1.65 -1.43,3.55l0 0 0.08 0.18 15.63 134.14c0.17,1.4 2.3,1.96 3.73,1.35l20.27 -8.64c1.42,-0.61 2.13,-2.38 2.13,-3.86l-1.88 -16.23 35.74 -15.24 10.41 12.58c1.06,1.02 2.85,1.73 4.27,1.12l20.27 -8.65c1.41,-0.61 2.49,-2.53 1.6,-3.62 -28.66,-34.65 -57.38,-69.46 -86.04,-104.11zm10.62 90.89l-4.7 -41.07 26.22 31.89 -21.52 9.18z"/>
   <path class="fil2" d="M1550.46 303.91c64.49,25.85 162.27,76.65 162.27,157.95 0,81.73 -99.78,133.43 -167.91,160.18l-40.64 -49.17 10.07 -3.13c37.62,-14.08 138.72,-57.12 138.72,-107.88 0,-46.28 -84.89,-86.22 -121.95,-101.34l19.44 -56.61z"/>
   <path class="fil2" d="M405.08 624.87c-168.41,-60.75 -405.08,-191.87 -405.08,-399.06l59.77 0c0,176.09 225.23,292.21 365.59,342.84l19.47 7.02 -23.02 55.23 -16.73 -6.03z"/>
   <path class="fil2" d="M413.34 347.74c-137.47,51.28 -353.57,166.18 -353.57,338.43l-59.77 0c0,-202.86 227.42,-332.82 392.45,-394.43l21.54 -8.04 17.71 57.19 -18.36 6.85z"/>
  </g>
 </g>
</svg>
