<svg xmlns="http://www.w3.org/2000/svg" width="6593" height="2972" viewBox="0 0 6593 2972" version="1.1"><path d="M 1128.500 632.133 C 939.145 645.526, 771.184 759.633, 687.925 931.444 C 659.621 989.852, 642.923 1051.389, 636.897 1119.500 C 635.302 1137.533, 635.302 1186.467, 636.897 1204.500 C 646.911 1317.690, 687.901 1417.393, 760.037 1504.025 C 773.738 1520.479, 808.205 1554.907, 824.464 1568.378 C 878.001 1612.737, 934.505 1644.465, 997.500 1665.543 C 1037.333 1678.871, 1073.744 1686.520, 1119.500 1691.172 C 1139.320 1693.187, 1197.101 1692.877, 1218.500 1690.641 C 1328.479 1679.149, 1426.795 1637.299, 1511 1566.133 C 1526.504 1553.030, 1556.363 1523.314, 1569.411 1508 C 1648.198 1415.538, 1693.035 1301.097, 1696.839 1182.750 C 1697.582 1159.636, 1696.758 1126.013, 1695.056 1110 C 1693.536 1095.703, 1690.064 1070.986, 1689.203 1068.340 C 1688.565 1066.380, 1683.215 1070.076, 1631.500 1108.193 L 1574.500 1150.207 1573.839 1170.353 C 1572.724 1204.297, 1568.731 1233.170, 1560.955 1263.500 C 1531.902 1376.833, 1453.887 1473.457, 1349.016 1525.992 C 1313.925 1543.571, 1275.487 1556.476, 1239 1562.929 C 1190.360 1571.531, 1139.709 1571.386, 1091.637 1562.507 C 935.634 1533.695, 808.261 1413.259, 770.646 1259 C 762.348 1224.970, 759.537 1200.424, 759.537 1162 C 759.537 1124.395, 761.456 1106.151, 769.007 1072 C 779.985 1022.350, 803.791 969.098, 834.052 926.500 C 851.761 901.571, 881.414 869.267, 903.500 850.844 C 999.034 771.156, 1120.207 739.116, 1241.398 761.499 C 1290.033 770.482, 1340.038 790.077, 1382.578 816.822 L 1396.656 825.673 1448.078 787.787 C 1476.360 766.950, 1499.500 749.501, 1499.500 749.011 C 1499.500 747.808, 1478.695 731.998, 1464.232 722.210 C 1436.196 703.238, 1399.012 683.206, 1368.500 670.636 C 1317.025 649.431, 1259.021 635.980, 1202 632.025 C 1185.103 630.854, 1145.778 630.911, 1128.500 632.133 M 2323.737 835.025 C 2251.899 841.407, 2190.941 863.819, 2138 903.313 C 2122.177 915.117, 2094.285 942.341, 2082.996 957 C 2047.365 1003.268, 2026.576 1054.058, 2018.327 1115 C 2015.792 1133.731, 2015.788 1183.541, 2018.320 1202.500 C 2025.409 1255.574, 2042.336 1302.258, 2069.445 1343.500 C 2125.443 1428.691, 2217.979 1480.800, 2328 1489.098 C 2347.088 1490.537, 2385.695 1489.738, 2403 1487.545 C 2470.198 1479.031, 2525.719 1456.891, 2571 1420.553 C 2583.601 1410.441, 2602.154 1393.058, 2601.490 1391.984 C 2601.013 1391.211, 2516.272 1328.459, 2513.208 1326.610 C 2512.397 1326.121, 2504.026 1330.113, 2490.708 1337.342 C 2445.953 1361.633, 2415.114 1370.442, 2370.419 1371.698 C 2339.021 1372.581, 2315.222 1369.354, 2288.719 1360.619 C 2210.975 1334.999, 2159.085 1269.949, 2150.055 1186.789 C 2148.701 1174.330, 2148.701 1149.670, 2150.055 1137.211 C 2159.082 1054.083, 2210.551 989.397, 2288.276 963.497 C 2312.385 955.463, 2334.865 952, 2362.909 952 C 2406.122 952, 2445.487 963.180, 2478.783 984.911 L 2488.066 990.969 2528.283 961.300 C 2550.402 944.981, 2572.702 928.530, 2577.838 924.742 C 2588.823 916.639, 2589.268 918.494, 2573.156 905.213 C 2527.995 867.986, 2470.656 844.542, 2405 836.461 C 2389.396 834.540, 2339.180 833.653, 2323.737 835.025 M 1377 991.118 C 1262.325 1075.785, 1167.958 1145.310, 1167.296 1145.618 C 1166.634 1145.926, 1120.819 1117.788, 1065.484 1083.089 C 1010.150 1048.390, 964.676 1020, 964.432 1020 C 964.188 1020, 964.103 1054.520, 964.244 1096.710 L 964.500 1173.420 1065.395 1236.679 C 1120.888 1271.472, 1166.634 1299.726, 1167.055 1299.466 C 1173.565 1295.443, 1649.584 943.625, 1649.788 942.685 C 1650.165 940.956, 1633.249 907.719, 1624.501 893 C 1612.825 873.356, 1587.687 836.815, 1586.036 837.089 C 1585.741 837.138, 1491.675 906.451, 1377 991.118 M 2718 1162.050 L 2718 1482.101 2878.250 1481.691 C 3040.410 1481.277, 3042.762 1481.225, 3069.500 1477.458 C 3139.199 1467.637, 3192.326 1440.205, 3224.539 1397.406 C 3248.025 1366.199, 3260 1326.795, 3260 1280.717 C 3260 1180.630, 3203.922 1117.071, 3098.346 1097.499 C 3067.754 1091.827, 3064.621 1091.690, 2956.250 1091.264 L 2856 1090.871 2856 1020.435 L 2856 950 2989.535 950 L 3123.071 950 3195.485 896.750 C 3235.314 867.462, 3267.923 843.163, 3267.950 842.750 C 3267.978 842.337, 3144.250 842, 2993 842 L 2718 842 2718 1162.050 M 3387.248 1161.750 L 3387.500 1481.500 3629.250 1481.752 L 3871 1482.004 3871 1428.002 L 3871 1374 3698.500 1374 L 3526 1374 3526 1293 L 3526 1212 3673.500 1212 L 3821 1212 3821 1158.500 L 3821 1105 3673.500 1105 L 3526 1105 3526 1027.500 L 3526 950 3626.035 950 L 3726.071 950 3798.485 896.750 C 3838.314 867.462, 3870.923 843.163, 3870.950 842.750 C 3870.978 842.337, 3762.099 842, 3628.998 842 L 3386.997 842 3387.248 1161.750 M 3999 1162 L 3999 1482 4068 1482 L 4137 1482 4137 1391.500 L 4137 1301 4206.250 1300.985 C 4291.498 1300.965, 4308.352 1299.983, 4343 1293.016 C 4415.391 1278.458, 4470.661 1242.932, 4503.269 1190 C 4518.807 1164.777, 4529.733 1130.905, 4533.065 1097.628 C 4534.807 1080.222, 4533.793 1044.727, 4531.125 1029.745 C 4526.687 1004.820, 4521.063 987.081, 4511.474 967.764 C 4478.036 900.404, 4409.460 857.421, 4316.500 845.556 C 4291.810 842.404, 4271.601 842.007, 4135.750 842.004 L 3999 842 3999 1162 M 4137 1072.042 L 4137 1194.189 4208.250 1193.723 C 4266.925 1193.339, 4281.304 1192.975, 4289.721 1191.657 C 4329.918 1185.365, 4358.102 1169.867, 4375.254 1144.623 C 4384.477 1131.048, 4391.312 1112.371, 4393.922 1093.608 C 4395.309 1083.635, 4395.309 1059.365, 4393.922 1049.392 C 4389.566 1018.079, 4375.616 992.402, 4354.194 976.271 C 4339.746 965.391, 4323.065 958.237, 4300.612 953.291 L 4288.500 950.623 4212.750 950.259 L 4137 949.896 4137 1072.042 M 2856 1286.045 L 2856 1374.091 2944.250 1373.761 C 3031.452 1373.436, 3032.648 1373.405, 3045 1371.123 C 3066.514 1367.148, 3085.444 1359.983, 3097.172 1351.374 C 3105.019 1345.614, 3114.446 1334.643, 3118.317 1326.765 C 3123.821 1315.566, 3126.056 1306.278, 3126.706 1291.903 C 3128.426 1253.832, 3114.443 1228.417, 3083.555 1213.474 C 3066.472 1205.210, 3045.611 1200.700, 3016.722 1199.027 C 3007.250 1198.478, 2967.213 1198.023, 2927.750 1198.015 L 2856 1198 2856 1286.045 M 2045 2013 L 2045 2333 2102.498 2333 L 2159.996 2333 2160.248 2096.723 L 2160.500 1860.446 2264.402 2026.238 L 2368.304 2192.029 2397.780 2191.765 L 2427.256 2191.500 2528.878 2023.476 L 2630.500 1855.453 2630.752 2094.226 L 2631.004 2333 2688.502 2333 L 2746 2333 2746 2013 L 2746 1693 2678.242 1693 L 2610.485 1693 2506.584 1865.250 C 2449.438 1959.987, 2402.192 2038.038, 2401.591 2038.694 C 2400.780 2039.583, 2373.473 1995.463, 2295 1866.476 L 2189.500 1693.063 2117.250 1693.032 L 2045 1693 2045 2013 M 3093.664 1693.750 C 3092.534 1695.615, 2835 2331.055, 2835 2331.977 C 2835 2332.687, 2853.442 2332.934, 2893.222 2332.758 L 2951.445 2332.500 2981.472 2256.774 L 3011.500 2181.049 3157.500 2181.049 L 3303.500 2181.050 3334 2257.004 L 3364.500 2332.958 3425.857 2332.979 C 3474.551 2332.996, 3487.110 2332.742, 3486.711 2331.750 C 3485.526 2328.802, 3229.556 1706.813, 3226.828 1700.250 L 3223.813 1693 3158.966 1693 C 3123.299 1693, 3093.914 1693.338, 3093.664 1693.750 M 3576 2013 L 3576 2333 3633.500 2333 L 3691 2333 3691 2233.500 L 3691 2134 3750.250 2133.995 C 3809.322 2133.991, 3830.865 2133.269, 3855.500 2130.467 C 3909.569 2124.318, 3956.248 2109.317, 3990 2087.245 C 4038.297 2055.660, 4065.544 2011.011, 4074.671 1948.500 C 4076.876 1933.395, 4077.173 1889.848, 4075.179 1874 C 4062.461 1772.936, 4002.016 1718.350, 3882 1699.543 C 3846.911 1694.045, 3816.683 1693.037, 3686.250 1693.017 L 3576 1693 3576 2013 M 4202 2013 L 4202 2333 4259.500 2333 L 4317 2333 4317 2194.491 L 4317 2055.982 4367.196 2056.241 L 4417.391 2056.500 4533.289 2194.750 L 4649.187 2333 4722.650 2333 C 4793.709 2333, 4796.071 2332.940, 4794.807 2331.166 C 4794.088 2330.157, 4730.618 2254.894, 4653.762 2163.916 C 4576.906 2072.937, 4513.984 1998.135, 4513.936 1997.689 C 4513.888 1997.243, 4568.120 1929.186, 4634.451 1846.451 C 4700.782 1763.716, 4755.315 1695.344, 4755.634 1694.512 C 4756.148 1693.172, 4748.336 1693, 4686.803 1693 L 4617.392 1693 4514.472 1827.500 L 4411.552 1962 4364.276 1962 L 4317 1962 4317 1827.500 L 4317 1693 4259.500 1693 L 4202 1693 4202 2013 M 4885 2012.998 L 4885 2333 5111.500 2333 L 5338 2333 5338 2280 L 5338 2227 5169 2227 L 5000 2227 5000 2141.500 L 5000 2056 5147 2056 L 5294 2056 5294 2003.500 L 5294 1951 5147 1951 L 5000 1951 5000 1875 L 5000 1799 5164.009 1799 L 5328.018 1799 5327.759 1746.250 L 5327.500 1693.500 5106.250 1693.248 L 4885 1692.996 4885 2012.998 M 5406 1746 L 5406 1799 5512 1799 L 5618 1799 5618 2066 L 5618 2333 5675.500 2333 L 5733 2333 5733 2066 L 5733 1799 5840.500 1799 L 5948 1799 5948 1746 L 5948 1693 5677 1693 L 5406 1693 5406 1746 M 3691 1913.401 L 3691 2028 3753.750 2027.991 C 3788.262 2027.987, 3821.675 2027.541, 3828 2027.001 C 3904.264 2020.488, 3942.570 1993.815, 3954.675 1938.796 C 3956.166 1932.019, 3956.490 1926.198, 3956.446 1907 C 3956.396 1884.766, 3956.249 1882.961, 3953.716 1873.500 C 3942.071 1830.008, 3910.768 1809.137, 3845.500 1801.351 C 3835.370 1800.143, 3816.880 1799.690, 3761.750 1799.301 L 3691 1798.801 3691 1913.401 M 3105 1945.543 C 3076.675 2016.239, 3053.350 2074.513, 3053.167 2075.041 C 3052.955 2075.649, 3090.960 2076, 3157.024 2076 C 3239.969 2076, 3261.115 2075.745, 3260.727 2074.750 C 3249.427 2045.720, 3157.422 1817.001, 3157.046 1817.002 C 3156.745 1817.003, 3133.325 1874.847, 3105 1945.543" stroke="none" fill="#000000" fill-rule="evenodd"/><path d="M 1128.500 632.133 C 939.145 645.526, 771.184 759.633, 687.925 931.444 C 659.621 989.852, 642.923 1051.389, 636.897 1119.500 C 635.302 1137.533, 635.302 1186.467, 636.897 1204.500 C 646.911 1317.690, 687.901 1417.393, 760.037 1504.025 C 773.738 1520.479, 808.205 1554.907, 824.464 1568.378 C 878.001 1612.737, 934.505 1644.465, 997.500 1665.543 C 1037.333 1678.871, 1073.744 1686.520, 1119.500 1691.172 C 1139.320 1693.187, 1197.101 1692.877, 1218.500 1690.641 C 1328.479 1679.149, 1426.795 1637.299, 1511 1566.133 C 1526.504 1553.030, 1556.363 1523.314, 1569.411 1508 C 1648.198 1415.538, 1693.035 1301.097, 1696.839 1182.750 C 1697.582 1159.636, 1696.758 1126.013, 1695.056 1110 C 1693.536 1095.703, 1690.064 1070.986, 1689.203 1068.340 C 1688.565 1066.380, 1683.215 1070.076, 1631.500 1108.193 L 1574.500 1150.207 1573.839 1170.353 C 1572.724 1204.297, 1568.731 1233.170, 1560.955 1263.500 C 1531.902 1376.833, 1453.887 1473.457, 1349.016 1525.992 C 1313.925 1543.571, 1275.487 1556.476, 1239 1562.929 C 1190.360 1571.531, 1139.709 1571.386, 1091.637 1562.507 C 935.634 1533.695, 808.261 1413.259, 770.646 1259 C 762.348 1224.970, 759.537 1200.424, 759.537 1162 C 759.537 1124.395, 761.456 1106.151, 769.007 1072 C 779.985 1022.350, 803.791 969.098, 834.052 926.500 C 851.761 901.571, 881.414 869.267, 903.500 850.844 C 999.034 771.156, 1120.207 739.116, 1241.398 761.499 C 1290.033 770.482, 1340.038 790.077, 1382.578 816.822 L 1396.656 825.673 1448.078 787.787 C 1476.360 766.950, 1499.500 749.501, 1499.500 749.011 C 1499.500 747.808, 1478.695 731.998, 1464.232 722.210 C 1436.196 703.238, 1399.012 683.206, 1368.500 670.636 C 1317.025 649.431, 1259.021 635.980, 1202 632.025 C 1185.103 630.854, 1145.778 630.911, 1128.500 632.133 M 2323.737 835.025 C 2251.899 841.407, 2190.941 863.819, 2138 903.313 C 2122.177 915.117, 2094.285 942.341, 2082.996 957 C 2047.365 1003.268, 2026.576 1054.058, 2018.327 1115 C 2015.792 1133.731, 2015.788 1183.541, 2018.320 1202.500 C 2025.409 1255.574, 2042.336 1302.258, 2069.445 1343.500 C 2125.443 1428.691, 2217.979 1480.800, 2328 1489.098 C 2347.088 1490.537, 2385.695 1489.738, 2403 1487.545 C 2470.198 1479.031, 2525.719 1456.891, 2571 1420.553 C 2583.601 1410.441, 2602.154 1393.058, 2601.490 1391.984 C 2601.013 1391.211, 2516.272 1328.459, 2513.208 1326.610 C 2512.397 1326.121, 2504.026 1330.113, 2490.708 1337.342 C 2445.953 1361.633, 2415.114 1370.442, 2370.419 1371.698 C 2339.021 1372.581, 2315.222 1369.354, 2288.719 1360.619 C 2210.975 1334.999, 2159.085 1269.949, 2150.055 1186.789 C 2148.701 1174.330, 2148.701 1149.670, 2150.055 1137.211 C 2159.082 1054.083, 2210.551 989.397, 2288.276 963.497 C 2312.385 955.463, 2334.865 952, 2362.909 952 C 2406.122 952, 2445.487 963.180, 2478.783 984.911 L 2488.066 990.969 2528.283 961.300 C 2550.402 944.981, 2572.702 928.530, 2577.838 924.742 C 2588.823 916.639, 2589.268 918.494, 2573.156 905.213 C 2527.995 867.986, 2470.656 844.542, 2405 836.461 C 2389.396 834.540, 2339.180 833.653, 2323.737 835.025 M 1377 991.118 C 1262.325 1075.785, 1167.958 1145.310, 1167.296 1145.618 C 1166.634 1145.926, 1120.819 1117.788, 1065.484 1083.089 C 1010.150 1048.390, 964.676 1020, 964.432 1020 C 964.188 1020, 964.103 1054.520, 964.244 1096.710 L 964.500 1173.420 1065.395 1236.679 C 1120.888 1271.472, 1166.634 1299.726, 1167.055 1299.466 C 1173.565 1295.443, 1649.584 943.625, 1649.788 942.685 C 1650.165 940.956, 1633.249 907.719, 1624.501 893 C 1612.825 873.356, 1587.687 836.815, 1586.036 837.089 C 1585.741 837.138, 1491.675 906.451, 1377 991.118 M 2718 1162.050 L 2718 1482.101 2878.250 1481.691 C 3040.410 1481.277, 3042.762 1481.225, 3069.500 1477.458 C 3139.199 1467.637, 3192.326 1440.205, 3224.539 1397.406 C 3248.025 1366.199, 3260 1326.795, 3260 1280.717 C 3260 1180.630, 3203.922 1117.071, 3098.346 1097.499 C 3067.754 1091.827, 3064.621 1091.690, 2956.250 1091.264 L 2856 1090.871 2856 1020.435 L 2856 950 2989.535 950 L 3123.071 950 3195.485 896.750 C 3235.314 867.462, 3267.923 843.163, 3267.950 842.750 C 3267.978 842.337, 3144.250 842, 2993 842 L 2718 842 2718 1162.050 M 3387.248 1161.750 L 3387.500 1481.500 3629.250 1481.752 L 3871 1482.004 3871 1428.002 L 3871 1374 3698.500 1374 L 3526 1374 3526 1293 L 3526 1212 3673.500 1212 L 3821 1212 3821 1158.500 L 3821 1105 3673.500 1105 L 3526 1105 3526 1027.500 L 3526 950 3626.035 950 L 3726.071 950 3798.485 896.750 C 3838.314 867.462, 3870.923 843.163, 3870.950 842.750 C 3870.978 842.337, 3762.099 842, 3628.998 842 L 3386.997 842 3387.248 1161.750 M 3999 1162 L 3999 1482 4068 1482 L 4137 1482 4137 1391.500 L 4137 1301 4206.250 1300.985 C 4291.498 1300.965, 4308.352 1299.983, 4343 1293.016 C 4415.391 1278.458, 4470.661 1242.932, 4503.269 1190 C 4518.807 1164.777, 4529.733 1130.905, 4533.065 1097.628 C 4534.807 1080.222, 4533.793 1044.727, 4531.125 1029.745 C 4526.687 1004.820, 4521.063 987.081, 4511.474 967.764 C 4478.036 900.404, 4409.460 857.421, 4316.500 845.556 C 4291.810 842.404, 4271.601 842.007, 4135.750 842.004 L 3999 842 3999 1162 M 4137 1072.042 L 4137 1194.189 4208.250 1193.723 C 4266.925 1193.339, 4281.304 1192.975, 4289.721 1191.657 C 4329.918 1185.365, 4358.102 1169.867, 4375.254 1144.623 C 4384.477 1131.048, 4391.312 1112.371, 4393.922 1093.608 C 4395.309 1083.635, 4395.309 1059.365, 4393.922 1049.392 C 4389.566 1018.079, 4375.616 992.402, 4354.194 976.271 C 4339.746 965.391, 4323.065 958.237, 4300.612 953.291 L 4288.500 950.623 4212.750 950.259 L 4137 949.896 4137 1072.042 M 2856 1286.045 L 2856 1374.091 2944.250 1373.761 C 3031.452 1373.436, 3032.648 1373.405, 3045 1371.123 C 3066.514 1367.148, 3085.444 1359.983, 3097.172 1351.374 C 3105.019 1345.614, 3114.446 1334.643, 3118.317 1326.765 C 3123.821 1315.566, 3126.056 1306.278, 3126.706 1291.903 C 3128.426 1253.832, 3114.443 1228.417, 3083.555 1213.474 C 3066.472 1205.210, 3045.611 1200.700, 3016.722 1199.027 C 3007.250 1198.478, 2967.213 1198.023, 2927.750 1198.015 L 2856 1198 2856 1286.045 M 2045 2013 L 2045 2333 2102.498 2333 L 2159.996 2333 2160.248 2096.723 L 2160.500 1860.446 2264.402 2026.238 L 2368.304 2192.029 2397.780 2191.765 L 2427.256 2191.500 2528.878 2023.476 L 2630.500 1855.453 2630.752 2094.226 L 2631.004 2333 2688.502 2333 L 2746 2333 2746 2013 L 2746 1693 2678.242 1693 L 2610.485 1693 2506.584 1865.250 C 2449.438 1959.987, 2402.192 2038.038, 2401.591 2038.694 C 2400.780 2039.583, 2373.473 1995.463, 2295 1866.476 L 2189.500 1693.063 2117.250 1693.032 L 2045 1693 2045 2013 M 3093.664 1693.750 C 3092.534 1695.615, 2835 2331.055, 2835 2331.977 C 2835 2332.687, 2853.442 2332.934, 2893.222 2332.758 L 2951.445 2332.500 2981.472 2256.774 L 3011.500 2181.049 3157.500 2181.049 L 3303.500 2181.050 3334 2257.004 L 3364.500 2332.958 3425.857 2332.979 C 3474.551 2332.996, 3487.110 2332.742, 3486.711 2331.750 C 3485.526 2328.802, 3229.556 1706.813, 3226.828 1700.250 L 3223.813 1693 3158.966 1693 C 3123.299 1693, 3093.914 1693.338, 3093.664 1693.750 M 3576 2013 L 3576 2333 3633.500 2333 L 3691 2333 3691 2233.500 L 3691 2134 3750.250 2133.995 C 3809.322 2133.991, 3830.865 2133.269, 3855.500 2130.467 C 3909.569 2124.318, 3956.248 2109.317, 3990 2087.245 C 4038.297 2055.660, 4065.544 2011.011, 4074.671 1948.500 C 4076.876 1933.395, 4077.173 1889.848, 4075.179 1874 C 4062.461 1772.936, 4002.016 1718.350, 3882 1699.543 C 3846.911 1694.045, 3816.683 1693.037, 3686.250 1693.017 L 3576 1693 3576 2013 M 4202 2013 L 4202 2333 4259.500 2333 L 4317 2333 4317 2194.491 L 4317 2055.982 4367.196 2056.241 L 4417.391 2056.500 4533.289 2194.750 L 4649.187 2333 4722.650 2333 C 4793.709 2333, 4796.071 2332.940, 4794.807 2331.166 C 4794.088 2330.157, 4730.618 2254.894, 4653.762 2163.916 C 4576.906 2072.937, 4513.984 1998.135, 4513.936 1997.689 C 4513.888 1997.243, 4568.120 1929.186, 4634.451 1846.451 C 4700.782 1763.716, 4755.315 1695.344, 4755.634 1694.512 C 4756.148 1693.172, 4748.336 1693, 4686.803 1693 L 4617.392 1693 4514.472 1827.500 L 4411.552 1962 4364.276 1962 L 4317 1962 4317 1827.500 L 4317 1693 4259.500 1693 L 4202 1693 4202 2013 M 4885 2012.998 L 4885 2333 5111.500 2333 L 5338 2333 5338 2280 L 5338 2227 5169 2227 L 5000 2227 5000 2141.500 L 5000 2056 5147 2056 L 5294 2056 5294 2003.500 L 5294 1951 5147 1951 L 5000 1951 5000 1875 L 5000 1799 5164.009 1799 L 5328.018 1799 5327.759 1746.250 L 5327.500 1693.500 5106.250 1693.248 L 4885 1692.996 4885 2012.998 M 5406 1746 L 5406 1799 5512 1799 L 5618 1799 5618 2066 L 5618 2333 5675.500 2333 L 5733 2333 5733 2066 L 5733 1799 5840.500 1799 L 5948 1799 5948 1746 L 5948 1693 5677 1693 L 5406 1693 5406 1746 M 3691 1913.401 L 3691 2028 3753.750 2027.991 C 3788.262 2027.987, 3821.675 2027.541, 3828 2027.001 C 3904.264 2020.488, 3942.570 1993.815, 3954.675 1938.796 C 3956.166 1932.019, 3956.490 1926.198, 3956.446 1907 C 3956.396 1884.766, 3956.249 1882.961, 3953.716 1873.500 C 3942.071 1830.008, 3910.768 1809.137, 3845.500 1801.351 C 3835.370 1800.143, 3816.880 1799.690, 3761.750 1799.301 L 3691 1798.801 3691 1913.401 M 3105 1945.543 C 3076.675 2016.239, 3053.350 2074.513, 3053.167 2075.041 C 3052.955 2075.649, 3090.960 2076, 3157.024 2076 C 3239.969 2076, 3261.115 2075.745, 3260.727 2074.750 C 3249.427 2045.720, 3157.422 1817.001, 3157.046 1817.002 C 3156.745 1817.003, 3133.325 1874.847, 3105 1945.543" stroke="none" fill="#000000" fill-rule="evenodd"/></svg>