<?xml version="1.0" encoding="UTF-8"?>
<!DOCTYPE svg PUBLIC "-//W3C//DTD SVG 1.1//EN" "http://www.w3.org/Graphics/SVG/1.1/DTD/svg11.dtd">
<svg xmlns="http://www.w3.org/2000/svg" version="1.1" width="904px" height="285px" style="shape-rendering:geometricPrecision; text-rendering:geometricPrecision; image-rendering:optimizeQuality; fill-rule:evenodd; clip-rule:evenodd" xmlns:xlink="http://www.w3.org/1999/xlink">
<g><path style="opacity:0.919" fill="#000000" d="M 533.5,81.5 C 566.631,82.4711 585.298,99.3044 589.5,132C 587.079,159.42 572.246,174.586 545,177.5C 520.531,176.028 506.698,163.195 503.5,139C 506.485,114.678 520.152,103.678 544.5,106C 560.246,110.651 567.079,121.151 565,137.5C 560.627,151.211 551.46,156.378 537.5,153C 529.436,149.371 526.269,143.205 528,134.5C 530.633,129.268 534.799,127.435 540.5,129C 543.966,131.424 544.966,134.59 543.5,138.5C 546.753,140.112 548.92,139.112 550,135.5C 550.163,122.137 543.663,117.304 530.5,121C 517.89,128.942 515.39,139.442 523,152.5C 532.709,162.811 544.209,165.311 557.5,160C 572.426,150.227 577.26,136.727 572,119.5C 561.273,99.0609 544.773,92.2275 522.5,99C 497.939,111.639 490.106,131.139 499,157.5C 511.441,179.636 530.274,188.803 555.5,185C 564.859,183.071 573.026,178.904 580,172.5C 583.727,175.724 586.894,179.391 589.5,183.5C 565.361,202.789 539.361,205.622 511.5,192C 482.976,173.431 474.143,147.931 485,115.5C 495.09,95.3814 511.256,84.048 533.5,81.5 Z"/></g>
<g><path style="opacity:0.918" fill="#000000" d="M 129.5,94.5 C 138.833,94.5 148.167,94.5 157.5,94.5C 157.5,124.167 157.5,153.833 157.5,183.5C 151.833,183.5 146.167,183.5 140.5,183.5C 140.5,158.167 140.5,132.833 140.5,107.5C 117.968,106.494 111.135,116.161 120,136.5C 125.263,141.765 131.096,146.265 137.5,150C 130.167,161 122.833,172 115.5,183C 109.5,183.667 103.5,183.667 97.5,183C 104.167,173.333 110.833,163.667 117.5,154C 101.624,143.704 96.4577,129.538 102,111.5C 108.294,101.107 117.46,95.4401 129.5,94.5 Z"/></g>
<g><path style="opacity:0.9" fill="#000000" d="M 622.5,94.5 C 639.167,94.5 655.833,94.5 672.5,94.5C 672.5,98.8333 672.5,103.167 672.5,107.5C 661.167,107.5 649.833,107.5 638.5,107.5C 638.5,115.833 638.5,124.167 638.5,132.5C 648.167,132.5 657.833,132.5 667.5,132.5C 667.5,136.833 667.5,141.167 667.5,145.5C 657.833,145.5 648.167,145.5 638.5,145.5C 638.5,153.833 638.5,162.167 638.5,170.5C 650.167,170.5 661.833,170.5 673.5,170.5C 673.5,174.833 673.5,179.167 673.5,183.5C 656.256,183.825 639.09,183.492 622,182.5C 621.176,153.095 621.342,123.761 622.5,94.5 Z"/></g>
<g><path style="opacity:0.936" fill="#000000" d="M 315.5,117.5 C 331.533,117.038 340.7,124.704 343,140.5C 343.499,146.157 343.666,151.824 343.5,157.5C 331.5,157.5 319.5,157.5 307.5,157.5C 307.436,167.436 312.436,172.436 322.5,172.5C 329.377,172.096 335.71,170.096 341.5,166.5C 342.661,170.795 342.828,175.129 342,179.5C 338.826,181.668 335.326,183.168 331.5,184C 305.477,188.459 291.81,177.626 290.5,151.5C 290.347,140.449 294.014,130.949 301.5,123C 305.845,120.057 310.511,118.224 315.5,117.5 Z M 315.5,130.5 C 318.972,130.126 321.972,131.126 324.5,133.5C 326.732,137.196 327.732,141.196 327.5,145.5C 320.833,145.5 314.167,145.5 307.5,145.5C 306.828,138.5 309.494,133.5 315.5,130.5 Z"/></g>
<g><path style="opacity:0.918" fill="#000000" d="M 432.5,117.5 C 438.993,117.603 445.326,118.603 451.5,120.5C 452.833,125.167 452.833,129.833 451.5,134.5C 433.773,126.027 424.106,131.527 422.5,151C 423.512,171.173 433.178,177.006 451.5,168.5C 452.661,172.795 452.828,177.129 452,181.5C 450.352,182.717 448.519,183.55 446.5,184C 414.633,186.791 401.466,172.291 407,140.5C 410.541,127.173 419.041,119.506 432.5,117.5 Z"/></g>
<g><path style="opacity:0.912" fill="#000000" d="M 763.5,118.5 C 769.842,118.334 776.175,118.5 782.5,119C 791.584,120.752 796.418,126.252 797,135.5C 797.5,151.497 797.667,167.497 797.5,183.5C 792.167,183.5 786.833,183.5 781.5,183.5C 781.5,182.5 781.5,181.5 781.5,180.5C 778.562,181.628 775.562,182.795 772.5,184C 752.312,186.478 743.478,177.645 746,157.5C 750.359,149.394 757.192,144.894 766.5,144C 771.155,143.501 775.821,143.334 780.5,143.5C 781.154,139.161 780.154,135.327 777.5,132C 767.844,130.147 759.011,131.98 751,137.5C 750.667,137.167 750.333,136.833 750,136.5C 749.333,132.5 749.333,128.5 750,124.5C 754.304,121.798 758.804,119.798 763.5,118.5 Z M 777.5,153.5 C 778.5,153.5 779.5,153.5 780.5,153.5C 780.666,158.844 780.499,164.177 780,169.5C 773.921,173.823 768.255,173.49 763,168.5C 761.099,164.425 761.599,160.592 764.5,157C 768.809,155.27 773.142,154.103 777.5,153.5 Z"/></g>
<g><path style="opacity:0.959" fill="#000000" d="M 168.5,119.5 C 173.833,119.5 179.167,119.5 184.5,119.5C 184.5,127.833 184.5,136.167 184.5,144.5C 191.167,144.5 197.833,144.5 204.5,144.5C 204.5,136.167 204.5,127.833 204.5,119.5C 209.5,119.5 214.5,119.5 219.5,119.5C 219.5,140.833 219.5,162.167 219.5,183.5C 214.5,183.5 209.5,183.5 204.5,183.5C 204.5,174.833 204.5,166.167 204.5,157.5C 197.833,157.5 191.167,157.5 184.5,157.5C 184.5,166.167 184.5,174.833 184.5,183.5C 179.167,183.5 173.833,183.5 168.5,183.5C 168.5,162.167 168.5,140.833 168.5,119.5 Z"/></g>
<g><path style="opacity:0.942" fill="#000000" d="M 236.5,119.5 C 251.5,119.5 266.5,119.5 281.5,119.5C 281.5,136.5 281.5,153.5 281.5,170.5C 283.5,170.5 285.5,170.5 287.5,170.5C 287.5,179.833 287.5,189.167 287.5,198.5C 282.833,198.5 278.167,198.5 273.5,198.5C 273.5,193.5 273.5,188.5 273.5,183.5C 262.5,183.5 251.5,183.5 240.5,183.5C 240.5,188.5 240.5,193.5 240.5,198.5C 235.5,198.5 230.5,198.5 225.5,198.5C 225.5,189.167 225.5,179.833 225.5,170.5C 227.467,170.739 229.301,170.406 231,169.5C 235.364,153.137 237.198,136.47 236.5,119.5 Z M 250.5,131.5 C 255.5,131.5 260.5,131.5 265.5,131.5C 265.5,144.5 265.5,157.5 265.5,170.5C 258.8,170.83 252.134,170.497 245.5,169.5C 248.924,157.091 250.591,144.424 250.5,131.5 Z"/></g>
<g><path style="opacity:0.928" fill="#000000" d="M 352.5,119.5 C 357.833,119.5 363.167,119.5 368.5,119.5C 368.334,128.839 368.5,138.173 369,147.5C 375.5,138.333 382,129.167 388.5,120C 394.167,119.333 399.833,119.333 405.5,120C 398.005,129.33 391.005,138.997 384.5,149C 392.284,160.063 399.951,171.23 407.5,182.5C 401.528,183.664 395.528,183.83 389.5,183C 382.79,173.079 375.957,163.246 369,153.5C 368.5,163.494 368.334,173.494 368.5,183.5C 363.167,183.5 357.833,183.5 352.5,183.5C 352.5,162.167 352.5,140.833 352.5,119.5 Z"/></g>
<g><path style="opacity:0.904" fill="#000000" d="M 690.5,119.5 C 705.5,119.5 720.5,119.5 735.5,119.5C 735.5,136.5 735.5,153.5 735.5,170.5C 737.792,170.244 739.959,170.577 742,171.5C 742.5,180.494 742.666,189.494 742.5,198.5C 737.489,198.666 732.489,198.499 727.5,198C 726.531,193.263 726.197,188.43 726.5,183.5C 715.833,183.5 705.167,183.5 694.5,183.5C 694.5,188.5 694.5,193.5 694.5,198.5C 689.238,198.805 684.072,198.471 679,197.5C 678.333,188.833 678.333,180.167 679,171.5C 680.825,170.897 682.659,170.23 684.5,169.5C 685.634,166.93 686.468,164.264 687,161.5C 689.03,147.579 690.196,133.579 690.5,119.5 Z M 704.5,131.5 C 709.167,131.5 713.833,131.5 718.5,131.5C 718.5,144.5 718.5,157.5 718.5,170.5C 712.132,170.83 705.798,170.496 699.5,169.5C 702.962,157.098 704.629,144.432 704.5,131.5 Z"/></g>
</svg>
